<mxfile host="app.diagrams.net" modified="2024-02-27T13:13:31.453Z" agent="Mozilla/5.0 (Windows NT 10.0; Win64; x64) AppleWebKit/537.36 (KHTML, like Gecko) Chrome/121.0.0.0 Safari/537.36" version="23.1.6" etag="K-ZB3Rn_IO-2xmY0na3T" type="github">
  <diagram name="Pagina-1" id="2ZdBn-W5TD_4sGgD4Bj5">
    <mxGraphModel>
      <root>
        <mxCell id="0" />
        <mxCell id="1" parent="0" />
      </root>
    </mxGraphModel>
  </diagram>
</mxfile>
